<?xml version="1.0" encoding="UTF-8"?>
<svg version="1.1" xmlns="http://www.w3.org/2000/svg" width="100" height="100">
<path d="M0 0 C1.16004561 0.00037972 2.32009122 0.00075944 3.51528972 0.00115067 C4.48445861 -0.0005801 4.48445861 -0.0005801 5.47320667 -0.00234583 C7.66511558 -0.00501878 9.85695284 -0.00048482 12.04885811 0.00394398 C13.62539508 0.00350842 15.20193198 0.00263378 16.77846849 0.00135481 C21.13161949 -0.00089307 25.48474613 0.00313512 29.83789402 0.00813287 C34.52435514 0.01243301 39.21081477 0.01099126 43.8972773 0.0102306 C52.02384784 0.00970509 60.15041038 0.01285474 68.27697891 0.01846844 C80.0267757 0.02657975 91.77656861 0.02919828 103.5263679 0.03045643 C122.58753199 0.03264753 141.64869181 0.03930919 160.70985359 0.04875904 C179.23101223 0.05793166 197.7521697 0.06501323 216.27333015 0.06926686 C217.41409974 0.06952958 218.55486933 0.0697923 219.73020769 0.07006299 C225.45285227 0.07136798 231.17549685 0.0726317 236.89814144 0.07387489 C284.40756602 0.08424932 331.91698596 0.10186921 379.42640632 0.1241985 C381.4862532 3.89459187 381.4862532 3.89459187 380.9476313 5.96105152 C380.60474571 6.57917713 380.26186012 7.19730274 379.90858406 7.83415943 C379.52249977 8.53279103 379.13641548 9.23142262 378.73863167 9.95122486 C376.51164752 13.63898921 374.15004826 17.21392012 371.71156257 20.7648235 C371.15282951 21.58762806 370.59409645 22.41043263 370.01843208 23.25817066 C368.81134151 25.03532827 367.60221287 26.81110295 366.39125007 28.58562428 C363.10116514 33.40843615 359.82806755 38.24274121 356.55531257 43.0773235 C355.87872597 44.07638722 355.20213936 45.07545094 354.50505012 46.10478932 C347.5542405 56.38480103 340.73397092 66.74901767 333.92640632 77.1241985 C323.7735715 92.58913818 313.49790262 107.96454771 303.12599128 123.28331715 C293.0773467 138.12981264 283.17746006 153.06951473 273.3345179 168.0530315 C263.83774034 182.50735297 254.24055924 196.88311572 244.42640632 211.1241985 C243.66424812 211.03855641 242.90208992 210.95291432 242.11683601 210.86467701 C217.28261967 208.11747994 192.79144918 206.54611775 167.80140632 207.9366985 C167.064123 207.97749531 166.32683967 208.01829212 165.56721443 208.06032521 C154.47325112 208.69654872 143.45944221 209.81166722 132.42640632 211.1241985 C131.5125105 209.75335476 130.59861527 208.38251061 129.68472236 207.01166493 C128.84906886 205.75818987 128.01340563 204.50472129 127.17773384 203.25125843 C124.75787812 199.62157049 122.33821153 195.99175667 119.91883796 192.36174732 C115.30372787 185.43764556 110.6879964 178.51397165 106.06509346 171.59506947 C103.66384256 168.00118331 101.26361153 164.40661689 98.86390632 160.8116985 C98.37393165 160.07770832 97.88395698 159.34371815 97.3791346 158.58748585 C91.38408229 149.60311447 85.41508543 140.60215371 79.48109382 131.5773235 C78.89068809 130.67939579 78.30028236 129.78146809 77.69198555 128.85633045 C76.48422021 127.01925619 75.27648219 125.18216396 74.06877083 123.34505421 C63.20276046 106.81706976 52.23171152 90.36650307 41.1414637 73.98815113 C30.13288051 57.72577569 19.29785084 41.35280712 8.5260157 24.93279225 C7.93696449 24.03563999 7.34791328 23.13848774 6.74101204 22.21414906 C5.64191206 20.53965233 4.54399517 18.86437821 3.44749397 17.1881786 C2.9595536 16.4446262 2.47161323 15.7010738 1.96888679 14.93498951 C1.54783668 14.29191349 1.12678657 13.64883747 0.69297737 12.9862743 C-0.58353693 11.0555535 -0.58353693 11.0555535 -2.21687371 9.08524281 C-4.09424235 6.37163707 -3.85991673 4.3453329 -3.57359368 1.1241985 C-2.57359368 0.1241985 -2.57359368 0.1241985 0 0 Z " fill="#32CD33" transform="translate(61.57359367609024,76.8758015036583)"/>
<path d="M0 0 C4.02785315 0.63553121 4.36202476 0.94933826 6.72412109 4.00756836 C7.80421763 5.6049302 8.85767473 7.22049948 9.88964844 8.84936523 C10.75595886 10.15255455 10.75595886 10.15255455 11.63977051 11.48207092 C13.52481156 14.32960597 15.37483569 17.19820043 17.22558594 20.06811523 C18.51484899 22.02784323 19.80636782 23.986089 21.10009766 25.94287109 C24.34733827 30.86639902 27.56688056 35.80728 30.77587891 40.75579834 C34.02270135 45.75994063 37.28596109 50.75336219 40.55258179 55.74459839 C42.82704589 59.2201628 45.09444633 62.69963089 47.34130859 66.19311523 C48.13863323 67.42360903 48.93599419 68.65407928 49.73339844 69.88452148 C50.75264404 71.46922241 50.75264404 71.46922241 51.79248047 73.0859375 C53.52854455 75.76993125 53.52854455 75.76993125 56.60058594 77.56811523 C60.6835682 78.12720985 60.6835682 78.12720985 64.60058594 77.56811523 C68.97468485 73.69627613 72.00045407 69.26142793 75.16308594 64.38061523 C76.22673213 62.7620232 77.29053869 61.14353654 78.35449219 59.52514648 C78.89348145 58.70095215 79.4324707 57.87675781 79.98779297 57.02758789 C82.5026156 53.19254048 85.05236649 49.38101587 87.60058594 45.56811523 C88.60077398 44.06824061 89.6007735 42.56824026 90.60058594 41.06811523 C96.16503906 32.72143555 101.72949219 24.37475586 107.29394531 16.02807617 C108.14956055 14.74465332 108.14956055 14.74465332 109.02246094 13.43530273 C111.88183594 9.14624023 114.74121094 4.85717773 117.60058594 0.56811523 C155.52746082 1.90870141 198.04911972 20.52957525 228.60058594 42.56811523 C229.60476563 43.28741211 230.60894531 44.00670898 231.64355469 44.74780273 C238.32918555 49.64551457 244.55085845 54.90653398 250.60058594 60.56811523 C245.6159917 72.87644291 226.17852144 81.78331127 215.60058594 88.56811523 C214.529375 89.2603418 213.45816406 89.95256836 212.35449219 90.66577148 C146.88108068 130.86207492 57.97614181 136.31026816 -15.39941406 119.56811523 C-54.46827499 110.14662912 -94.72583178 94.31972209 -124.41113281 66.38061523 C-126.47041395 64.41201202 -126.47041395 64.41201202 -129.39941406 62.56811523 C-127.85059913 58.58544827 -125.10358681 56.2364052 -121.89941406 53.56811523 C-121.33407959 53.09462646 -120.76874512 52.6211377 -120.1862793 52.13330078 C-86.28227834 24.38953369 -42.91460858 7.17195448 0 0 Z " fill="#33CC34" transform="translate(189.3994140625,294.431884765625)"/>
<path d="M0 0 C1.16004561 0.00037972 2.32009122 0.00075944 3.51528972 0.00115067 C4.48445861 -0.0005801 4.48445861 -0.0005801 5.47320667 -0.00234583 C7.66511558 -0.00501878 9.85695284 -0.00048482 12.04885811 0.00394398 C13.62539508 0.00350842 15.20193198 0.00263378 16.77846849 0.00135481 C21.13161949 -0.00089307 25.48474613 0.00313512 29.83789402 0.00813287 C34.52435514 0.01243301 39.21081477 0.01099126 43.8972773 0.0102306 C52.02384784 0.00970509 60.15041038 0.01285474 68.27697891 0.01846844 C80.0267757 0.02657975 91.77656861 0.02919828 103.5263679 0.03045643 C122.58753199 0.03264753 141.64869181 0.03930919 160.70985359 0.04875904 C179.23101223 0.05793166 197.7521697 0.06501323 216.27333015 0.06926686 C217.41409974 0.06952958 218.55486933 0.0697923 219.73020769 0.07006299 C225.45285227 0.07136798 231.17549685 0.0726317 236.89814144 0.07387489 C284.40756602 0.08424932 331.91698596 0.10186921 379.42640632 0.1241985 C381.48939461 3.88738209 381.48939461 3.88738209 380.92250007 6.01872975 C380.57316414 6.65165943 380.2238282 7.28458912 379.86390632 7.9366985 C379.48492195 8.62376881 379.10593757 9.31083912 378.71546882 10.01872975 C376.76952674 13.19710182 374.70305051 16.17071414 372.42640632 19.1241985 C372.09640632 19.1241985 371.76640632 19.1241985 371.42640632 19.1241985 C372.01234382 12.97185475 372.01234382 12.97185475 372.42640632 11.1241985 C373.08640632 10.7941985 373.74640632 10.4641985 374.42640632 10.1241985 C375.08640632 10.4541985 375.74640632 10.7841985 376.42640632 11.1241985 C376.75640632 9.1441985 377.08640632 7.1641985 377.42640632 5.1241985 C377.09640632 5.4541985 376.76640632 5.7841985 376.42640632 6.1241985 C375.76640632 6.1241985 375.10640632 6.1241985 374.42640632 6.1241985 C374.09640632 5.1341985 373.76640632 4.1441985 373.42640632 3.1241985 C250.33640632 3.1241985 127.24640632 3.1241985 0.42640632 3.1241985 C-0.67018304 6.41396657 -0.37312505 7.83723616 0.42640632 11.1241985 C-1.57359368 9.4991985 -1.57359368 9.4991985 -3.57359368 7.1241985 C-3.88609368 3.9366985 -3.88609368 3.9366985 -3.57359368 1.1241985 C-2.57359368 0.1241985 -2.57359368 0.1241985 0 0 Z " fill="#3AC53C" transform="translate(61.57359367609024,76.8758015036583)"/>
<path d="M0 0 C1.16004561 0.00037972 2.32009122 0.00075944 3.51528972 0.00115067 C4.48445861 -0.0005801 4.48445861 -0.0005801 5.47320667 -0.00234583 C7.66511558 -0.00501878 9.85695284 -0.00048482 12.04885811 0.00394398 C13.62539508 0.00350842 15.20193198 0.00263378 16.77846849 0.00135481 C21.13161949 -0.00089307 25.48474613 0.00313512 29.83789402 0.00813287 C34.52435514 0.01243301 39.21081477 0.01099126 43.8972773 0.0102306 C52.02384784 0.00970509 60.15041038 0.01285474 68.27697891 0.01846844 C80.0267757 0.02657975 91.77656861 0.02919828 103.5263679 0.03045643 C122.58753199 0.03264753 141.64869181 0.03930919 160.70985359 0.04875904 C179.23101223 0.05793166 197.7521697 0.06501323 216.27333015 0.06926686 C217.41409974 0.06952958 218.55486933 0.0697923 219.73020769 0.07006299 C225.45285227 0.07136798 231.17549685 0.0726317 236.89814144 0.07387489 C284.40756602 0.08424932 331.91698596 0.10186921 379.42640632 0.1241985 C380.08640632 1.4441985 380.74640632 2.7641985 381.42640632 4.1241985 C380.76640632 5.1141985 380.10640632 6.1041985 379.42640632 7.1241985 C378.76640632 5.4741985 378.10640632 3.8241985 377.42640632 2.1241985 C252.35640632 1.7941985 127.28640632 1.4641985 -1.57359368 1.1241985 C-1.24359368 2.7741985 -0.91359368 4.4241985 -0.57359368 6.1241985 C-0.24026034 7.79086516 0.09307299 9.45753183 0.42640632 11.1241985 C-1.57359368 9.4991985 -1.57359368 9.4991985 -3.57359368 7.1241985 C-3.88609368 3.9366985 -3.88609368 3.9366985 -3.57359368 1.1241985 C-2.57359368 0.1241985 -2.57359368 0.1241985 0 0 Z " fill="#57B657" transform="translate(61.57359367609024,76.8758015036583)"/>
<path d="M0 0 C1.32 0 2.64 0 4 0 C2.69150423 3.5693777 1.12607526 6.52418566 -1.0390625 9.64453125 C-1.90917969 10.90620117 -1.90917969 10.90620117 -2.796875 12.19335938 C-3.40015625 13.05767578 -4.0034375 13.92199219 -4.625 14.8125 C-5.23601562 15.69615234 -5.84703125 16.57980469 -6.4765625 17.49023438 C-7.98003475 19.66322161 -9.48794734 21.83297876 -11 24 C-11.7621582 23.91435791 -12.52431641 23.82871582 -13.30957031 23.74047852 C-43.31412798 20.42133078 -72.85047262 19.78730923 -103 21 C-102.67 20.34 -102.34 19.68 -102 19 C-90.37686887 17.20722364 -78.1644096 17.841343 -66.4375 17.875 C-65.51500458 17.87621857 -64.59250916 17.87743713 -63.64205933 17.87869263 C-26.18956568 17.93681144 -26.18956568 17.93681144 -20 20 C-18.27204648 20.06802967 -16.54164635 20.08495645 -14.8125 20.0625 C-13.91144531 20.05347656 -13.01039063 20.04445313 -12.08203125 20.03515625 C-11.05142578 20.01775391 -11.05142578 20.01775391 -10 20 C-10.495 18.02 -10.495 18.02 -11 16 C-10.01 16 -9.02 16 -8 16 C-7.814375 15.13375 -7.814375 15.13375 -7.625 14.25 C-6.99351176 11.97664233 -6.11141809 10.0746471 -5 8 C-4.01 8 -3.02 8 -2 8 C-2 6.68 -2 5.36 -2 4 C-1.34 4 -0.68 4 0 4 C-0.495 2.515 -0.495 2.515 -1 1 C-0.67 0.67 -0.34 0.34 0 0 Z " fill="#79D47A" transform="translate(317,264)"/>
<path d="M0 0 C1.0360437 0.04543945 1.0360437 0.04543945 2.09301758 0.09179688 C22.91463958 0.95804565 43.72582348 1.08902242 64.5625 1.0625 C65.23976261 1.06164398 65.91702522 1.06078796 66.61481094 1.05990601 C75.07656466 1.04842464 83.53828545 1.02821873 92 1 C92 1.33 92 1.66 92 2 C61.18594866 5.28217657 30.73055802 4.72091772 0 1 C0 0.67 0 0.34 0 0 Z " fill="#7EDA7F" transform="translate(201,418)"/>
<path d="M0 0 C17.81468572 0.40571748 35.24240933 6.42690413 52 12 C52 12.33 52 12.66 52 13 C40.40014558 13.5485045 40.40014558 13.5485045 36 10 C33.62508386 8.81254193 31.83161221 8.75674513 29.1875 8.5625 C25.45448472 8.22755507 22.39329294 7.69664647 19 6 C19 5.34 19 4.68 19 4 C16.36 4 13.72 4 11 4 C11 3.34 11 2.68 11 2 C5.06 2.495 5.06 2.495 -1 3 C-0.67 2.01 -0.34 1.02 0 0 Z " fill="#7ED77F" transform="translate(307,295)"/>
<path d="M0 0 C1.60294922 0.16628906 1.60294922 0.16628906 3.23828125 0.3359375 C4.04652344 0.43132812 4.85476563 0.52671875 5.6875 0.625 C0.97406239 4.42504498 -4.41872887 6.48668095 -9.9375 8.875 C-10.9996875 9.34679687 -12.061875 9.81859375 -13.15625 10.3046875 C-14.16945313 10.74554688 -15.18265625 11.18640625 -16.2265625 11.640625 C-17.6180249 12.24825684 -17.6180249 12.24825684 -19.03759766 12.86816406 C-21.3125 13.625 -21.3125 13.625 -23.3125 12.625 C-23.3125 11.965 -23.3125 11.305 -23.3125 10.625 C-21.9925 10.625 -20.6725 10.625 -19.3125 10.625 C-19.3125 9.965 -19.3125 9.305 -19.3125 8.625 C-17.6625 8.625 -16.0125 8.625 -14.3125 8.625 C-14.3125 7.965 -14.3125 7.305 -14.3125 6.625 C-13.6525 6.295 -12.9925 5.965 -12.3125 5.625 C-12.209375 4.985625 -12.10625 4.34625 -12 3.6875 C-11.3125 1.625 -11.3125 1.625 -9.1640625 0.47265625 C-5.84235503 -0.51475542 -3.43334405 -0.37729055 0 0 Z " fill="#4FCF52" transform="translate(387.3125,388.375)"/>
<path d="M0 0 C0.66 0.33 1.32 0.66 2 1 C1.505 1.763125 1.01 2.52625 0.5 3.3125 C-1.24368308 5.92363751 -1.24368308 5.92363751 -1 9 C-3.2726495 11.97192627 -4.56518216 12.89965742 -8.25 13.75 C-9.61125 13.87375 -9.61125 13.87375 -11 14 C-10.67 14.66 -10.34 15.32 -10 16 C-9.01 16.33 -8.02 16.66 -7 17 C-6.67 16.34 -6.34 15.68 -6 15 C-6 17.31 -6 19.62 -6 22 C-7.34444159 21.09970429 -8.67531438 20.17911978 -10 19.25 C-10.7425 18.73953125 -11.485 18.2290625 -12.25 17.703125 C-12.8275 17.14109375 -13.405 16.5790625 -14 16 C-14 12 -14 12 -11.953125 9.74609375 C-11.06109375 8.98425781 -10.1690625 8.22242188 -9.25 7.4375 C-8.36828125 6.67308594 -7.4865625 5.90867187 -6.578125 5.12109375 C-4.42468101 3.34939665 -2.25034047 1.64569291 0 0 Z " fill="#3ACA3B" transform="translate(75,342)"/>
<path d="M0 0 C3.89488759 0.62150109 7.05469232 1.80848135 10.60546875 3.51171875 C11.67216797 4.02283203 12.73886719 4.53394531 13.83789062 5.06054688 C14.94326172 5.59744141 16.04863281 6.13433594 17.1875 6.6875 C18.81655273 7.46383789 18.81655273 7.46383789 20.47851562 8.25585938 C27.21241785 11.50350111 33.66809289 15.02464806 40 19 C39.01 19.66 38.02 20.32 37 21 C36.0925 20.38125 35.185 19.7625 34.25 19.125 C31.85051183 17.55610389 29.59038388 16.19556179 27 15 C27 14.34 27 13.68 27 13 C25.35 13 23.7 13 22 13 C22 12.34 22 11.68 22 11 C21.401875 10.855625 20.80375 10.71125 20.1875 10.5625 C18.43849596 10.1127561 16.71322977 9.57107659 15 9 C15 8.34 15 7.68 15 7 C13.9171875 7.0309375 13.9171875 7.0309375 12.8125 7.0625 C8.95215322 6.97671452 5.65456175 6.21818725 2 5 C2 4.34 2 3.68 2 3 C1.34 2.67 0.68 2.34 0 2 C0 1.34 0 0.68 0 0 Z M32 19 C32 22 32 22 32 22 Z " fill="#74D576" transform="translate(369,312)"/>
<path d="M0 0 C1.32 0.66 2.64 1.32 4 2 C-3.92 13.88 -11.84 25.76 -20 38 C-20.33 36.68 -20.66 35.36 -21 34 C-20.34 34 -19.68 34 -19 34 C-19 31.69 -19 29.38 -19 27 C-17.35 26.67 -15.7 26.34 -14 26 C-14 25.01 -14 24.02 -14 23 C-13.34 23 -12.68 23 -12 23 C-11.7834375 22.071875 -11.7834375 22.071875 -11.5625 21.125 C-11 19 -11 19 -10 17 C-9.34 17 -8.68 17 -8 17 C-8 15.68 -8 14.36 -8 13 C-7.34 13 -6.68 13 -6 13 C-6 12.34 -6 11.68 -6 11 C-5.34 11 -4.68 11 -4 11 C-4 10.01 -4 9.02 -4 8 C-3.34 8 -2.68 8 -2 8 C-2 6.68 -2 5.36 -2 4 C-1.34 4 -0.68 4 0 4 C-0.33 3.01 -0.66 2.02 -1 1 C-0.67 0.67 -0.34 0.34 0 0 Z " fill="#73D473" transform="translate(349,216)"/>
<path d="M0 0 C1.47906892 -0.02689216 2.95827483 -0.04634621 4.4375 -0.0625 C5.26121094 -0.07410156 6.08492187 -0.08570313 6.93359375 -0.09765625 C9 0 9 0 10 1 C17.83145696 3.18393571 25.92296566 3.55774164 34 4 C34.495 5.485 34.495 5.485 35 7 C28.37327415 7.35922337 22.27197232 6.01279248 15.8125 4.625 C14.73291016 4.40328125 13.65332031 4.1815625 12.54101562 3.953125 C3.82109377 2.11279388 3.82109377 2.11279388 0 0 Z " fill="#83D986" transform="translate(166,411)"/>
<path d="M0 0 C1.32 0 2.64 0 4 0 C2.64491883 3.70317045 0.96433209 6.80510557 -1.22265625 10.08203125 C-1.84333984 11.01337891 -2.46402344 11.94472656 -3.10351562 12.90429688 C-3.74998047 13.86400391 -4.39644531 14.82371094 -5.0625 15.8125 C-5.71283203 16.79154297 -6.36316406 17.77058594 -7.03320312 18.77929688 C-10.61095379 24.12172373 -10.61095379 24.12172373 -12 26 C-12.33 26 -12.66 26 -13 26 C-13 24.35 -13 22.7 -13 21 C-12.01 20.67 -11.02 20.34 -10 20 C-10 19.01 -10 18.02 -10 17 C-9.34 17 -8.68 17 -8 17 C-8 15.68 -8 14.36 -8 13 C-7.34 13 -6.68 13 -6 13 C-5.5978125 11.7934375 -5.5978125 11.7934375 -5.1875 10.5625 C-4.795625 9.716875 -4.40375 8.87125 -4 8 C-3.01 7.67 -2.02 7.34 -1 7 C-1.020625 6.030625 -1.04125 5.06125 -1.0625 4.0625 C-1 1 -1 1 0 0 Z " fill="#6DD26F" transform="translate(381,168)"/>
<path d="M0 0 C0.99 0.33 1.98 0.66 3 1 C0.69305023 4.50368828 -1.62146385 8.00231275 -3.9375 11.5 C-4.9265332 13.00240234 -4.9265332 13.00240234 -5.93554688 14.53515625 C-6.56396484 15.48261719 -7.19238281 16.43007812 -7.83984375 17.40625 C-8.42113037 18.28603516 -9.00241699 19.16582031 -9.60131836 20.07226562 C-10.0628833 20.70841797 -10.52444824 21.34457031 -11 22 C-11.33 22 -11.66 22 -12 22 C-12 20.35 -12 18.7 -12 17 C-10.68 16.34 -9.36 15.68 -8 15 C-8 13.68 -8 12.36 -8 11 C-7.34 11 -6.68 11 -6 11 C-6 9.35 -6 7.7 -6 6 C-5.01 6 -4.02 6 -3 6 C-2.67 4.68 -2.34 3.36 -2 2 C-1.34 2 -0.68 2 0 2 C0 1.34 0 0.68 0 0 Z " fill="#71D472" transform="translate(413,122)"/>
<path d="M0 0 C0 0.99 0 1.98 0 3 C-0.639375 3.268125 -1.27875 3.53625 -1.9375 3.8125 C-4.33131686 4.88667752 -4.33131686 4.88667752 -5 8 C-6.98 7.34 -8.96 6.68 -11 6 C-11.33 6.99 -11.66 7.98 -12 9 C-17.09915632 12.17280838 -17.09915632 12.17280838 -20.19921875 11.578125 C-20.79347656 11.38734375 -21.38773437 11.1965625 -22 11 C-4.23367698 0 -4.23367698 0 0 0 Z " fill="#7CD67C" transform="translate(117,318)"/>
<path d="M0 0 C-19.37505654 10.976646 -19.37505654 10.976646 -26.23828125 9.52734375 C-26.81964844 9.35332031 -27.40101562 9.17929687 -28 9 C-20.91802733 6.13280459 -13.83221901 3.2702725 -6.6875 0.5625 C-5.39392578 0.06943359 -5.39392578 0.06943359 -4.07421875 -0.43359375 C-2 -1 -2 -1 0 0 Z " fill="#7AD77A" transform="translate(152,305)"/>
<path d="M0 0 C20.53191489 -0.38297872 20.53191489 -0.38297872 30 2 C30 2.33 30 2.66 30 3 C7.37049597 3.24130988 7.37049597 3.24130988 1 2 C0.67 1.34 0.34 0.68 0 0 Z " fill="#63CE65" transform="translate(275,283)"/>
<path d="M0 0 C1.32 0 2.64 0 4 0 C4 0.66 4 1.32 4 2 C5.98 2 7.96 2 10 2 C10.33 2.66 10.66 3.32 11 4 C12.97888961 4.72693904 14.97954558 5.39816251 17 6 C17 6.99 17 7.98 17 9 C17.66 9.33 18.32 9.66 19 10 C14.41954711 10 12.81043087 9.00549952 8.9375 6.6875 C7.89464844 6.07261719 6.85179688 5.45773437 5.77734375 4.82421875 C3.51894838 3.34085639 1.78159569 2.00352456 0 0 Z " fill="#64D164" transform="translate(84,375)"/>
<path d="M0 0 C1.65 0 3.3 0 5 0 C0.8371903 3.50035864 -3.58190582 6.38244453 -8.1875 9.25 C-9.27321289 9.93835938 -9.27321289 9.93835938 -10.38085938 10.640625 C-11.07373047 11.07375 -11.76660156 11.506875 -12.48046875 11.953125 C-13.10848389 12.34661133 -13.73649902 12.74009766 -14.38354492 13.14550781 C-16 14 -16 14 -18 14 C-18 13.01 -18 12.02 -18 11 C-16.02 10.67 -14.04 10.34 -12 10 C-12 9.34 -12 8.68 -12 8 C-11.01 8 -10.02 8 -9 8 C-9 7.34 -9 6.68 -9 6 C-6 4 -6 4 -2 4 C-2 3.34 -2 2.68 -2 2 C-1.34 2 -0.68 2 0 2 C0 1.34 0 0.68 0 0 Z " fill="#74D474" transform="translate(411,375)"/>
<path d="M0 0 C0.33 0.99 0.66 1.98 1 3 C-0.299375 2.979375 -1.59875 2.95875 -2.9375 2.9375 C-4.29165633 2.91600546 -5.64756083 2.92851801 -7 3 C-7.33 3.33 -7.66 3.66 -8 4 C-10.85877909 4.23701239 -13.69883297 4.42219182 -16.5625 4.5625 C-17.36880859 4.60568359 -18.17511719 4.64886719 -19.00585938 4.69335938 C-21.00368805 4.79975262 -23.0018207 4.90040888 -25 5 C-21.52179367 2.68119578 -18.8416981 2.18192851 -14.75 1.375 C-13.46609375 1.11460937 -12.1821875 0.85421875 -10.859375 0.5859375 C-7.16832367 0.02555521 -3.72587543 -0.1061778 0 0 Z " fill="#7ED67F" transform="translate(193,295)"/>
<path d="M0 0 C0.66 0.33 1.32 0.66 2 1 C1.67 1.33 1.34 1.66 1 2 C1.66 2.66 2.32 3.32 3 4 C1.02 4.99 1.02 4.99 -1 6 C-0.67 6.66 -0.34 7.32 0 8 C0.99 8.33 1.98 8.66 3 9 C3.33 8.34 3.66 7.68 4 7 C4 9.31 4 11.62 4 14 C2.65555841 13.09970429 1.32468562 12.17911978 0 11.25 C-0.7425 10.73953125 -1.485 10.2290625 -2.25 9.703125 C-2.8275 9.14109375 -3.405 8.5790625 -4 8 C-4 4 -4 4 -2 1.75 C-1.01 0.88375 -1.01 0.88375 0 0 Z " fill="#76D576" transform="translate(65,350)"/>
<path d="M0 0 C2.4375 0.625 2.4375 0.625 5 2 C5.6875 5.0625 5.6875 5.0625 6 8 C6.66 8.33 7.32 8.66 8 9 C10.76385732 11.30321443 11.81676743 13.63233808 13 17 C12.01 17 11.02 17 10 17 C8.74145508 15.65478516 8.74145508 15.65478516 7.51953125 13.7890625 C7.07802734 13.12132812 6.63652344 12.45359375 6.18164062 11.765625 C5.72982422 11.05921875 5.27800781 10.3528125 4.8125 9.625 C4.34908203 8.92632812 3.88566406 8.22765625 3.40820312 7.5078125 C0 2.28758975 0 2.28758975 0 0 Z " fill="#71D373" transform="translate(100,145)"/>
<path d="M0 0 C0.99 0 1.98 0 3 0 C3.33 0.99 3.66 1.98 4 3 C2.59666805 5.35255857 1.17838877 7.49093839 -0.4375 9.6875 C-0.87126953 10.29400391 -1.30503906 10.90050781 -1.75195312 11.52539062 C-2.82544245 13.02355704 -3.91155165 14.5126661 -5 16 C-5.33 14.68 -5.66 13.36 -6 12 C-5.34 12 -4.68 12 -4 12 C-4 11.01 -4 10.02 -4 9 C-3.34 9 -2.68 9 -2 9 C-2.33 7.35 -2.66 5.7 -3 4 C-2.01 3.67 -1.02 3.34 0 3 C0 2.01 0 1.02 0 0 Z " fill="#6BD56C" transform="translate(391,152)"/>
<path d="M0 0 C1.9375 0.75 1.9375 0.75 4 2 C4.75 4.125 4.75 4.125 5 6 C5.66 6 6.32 6 7 6 C9.1875 7.6875 9.1875 7.6875 11 10 C10.75 12.75 10.75 12.75 10 15 C5.84710903 11.32628876 2.76621742 6.77633541 0 2 C0 1.34 0 0.68 0 0 Z " fill="#5DD062" transform="translate(183,270)"/>
<path d="M0 0 C1.9375 0.6875 1.9375 0.6875 4 2 C4.75 4.625 4.75 4.625 5 7 C5.99 7.33 6.98 7.66 8 8 C8 8.66 8 9.32 8 10 C8.66 10.33 9.32 10.66 10 11 C10 11.99 10 12.98 10 14 C10.66 14 11.32 14 12 14 C11.67 15.32 11.34 16.64 11 18 C9.15912001 15.38021769 7.32861565 12.75335419 5.5 10.125 C4.97535156 9.37863281 4.45070312 8.63226563 3.91015625 7.86328125 C3.16572266 6.79013672 3.16572266 6.79013672 2.40625 5.6953125 C1.94541016 5.03547363 1.48457031 4.37563477 1.00976562 3.69580078 C0 2 0 2 0 0 Z " fill="#8DDB8E" transform="translate(169,249)"/>
<path d="M0 0 C2.475 0.495 2.475 0.495 5 1 C5 2.32 5 3.64 5 5 C5.99 5 6.98 5 8 5 C8.33 4.34 8.66 3.68 9 3 C10.2077558 6.62326739 9.54311128 7.64146369 8 11 C4.32966073 7.72291137 2.30718811 4.28477792 0 0 Z " fill="#4ED053" transform="translate(78,113)"/>
<path d="M0 0 C1.98 0.66 3.96 1.32 6 2 C6.12375 2.78375 6.2475 3.5675 6.375 4.375 C6.79117993 7.14057822 6.79117993 7.14057822 9 9 C9.39764263 10.98821313 9.73775349 12.98944339 10 15 C5.84710903 11.32628876 2.76621742 6.77633541 0 2 C0 1.34 0 0.68 0 0 Z " fill="#7FD880" transform="translate(68,97)"/>
<path d="M0 0 C0 3.38878512 -0.64361198 4.39757217 -2.4375 7.1875 C-2.88996094 7.90292969 -3.34242188 8.61835937 -3.80859375 9.35546875 C-4.20175781 9.89816406 -4.59492188 10.44085938 -5 11 C-5.33 11 -5.66 11 -6 11 C-6.33 8.69 -6.66 6.38 -7 4 C-6.34 4 -5.68 4 -5 4 C-4.67 3.01 -4.34 2.02 -4 1 C-1.9375 0.3125 -1.9375 0.3125 0 0 Z " fill="#6FD56E" transform="translate(432,96)"/>
<path d="M0 0 C2.31 0.33 4.62 0.66 7 1 C7 1.66 7 2.32 7 3 C8.36125 2.8453125 8.36125 2.8453125 9.75 2.6875 C13 3 13 3 15.375 5.5 C15.91125 6.325 16.4475 7.15 17 8 C11.00067626 6.1668733 5.55079437 3.92678249 0 1 C0 0.67 0 0.34 0 0 Z " fill="#75D374" transform="translate(110,390)"/>
<path d="M0 0 C0.99 0 1.98 0 3 0 C1.48109469 4.55671592 -0.95402262 8.31723292 -4 12 C-4.33 12 -4.66 12 -5 12 C-4.4140625 5.84765625 -4.4140625 5.84765625 -4 4 C-3.34 3.67 -2.68 3.34 -2 3 C-1.34 3.33 -0.68 3.66 0 4 C0 2.68 0 1.36 0 0 Z " fill="#78D778" transform="translate(438,84)"/>
<path d="M0 0 C4.29 0 8.58 0 13 0 C13.33 0.99 13.66 1.98 14 3 C8.80790596 3.21192221 4.873261 2.5912689 0 1 C0 0.67 0 0.34 0 0 Z " fill="#62D064" transform="translate(187,415)"/>
<path d="M0 0 C6.27 0 12.54 0 19 0 C19 0.33 19 0.66 19 1 C10.09 1.99 10.09 1.99 1 3 C0.67 2.01 0.34 1.02 0 0 Z " fill="#88D989" transform="translate(193,285)"/>
<path d="M0 0 C3.98381075 2.16264012 6.88983545 4.71211176 10 8 C9.34 9.32 8.68 10.64 8 12 C7.67 12 7.34 12 7 12 C6.67 10.35 6.34 8.7 6 7 C4.68 6.67 3.36 6.34 2 6 C2 4.68 2 3.36 2 2 C1.34 2 0.68 2 0 2 C0 1.34 0 0.68 0 0 Z " fill="#88D888" transform="translate(430,347)"/>
<path d="M0 0 C0.99 0 1.98 0 3 0 C3.33 0.66 3.66 1.32 4 2 C4.99 2 5.98 2 7 2 C6 5 6 5 4 6 C4 6.99 4 7.98 4 9 C0.125 7.25 0.125 7.25 -1 5 C-0.01 4.34 0.98 3.68 2 3 C1.34 2.67 0.68 2.34 0 2 C0 1.34 0 0.68 0 0 Z " fill="#4FD151" transform="translate(72,360)"/>
<path d="M0 0 C10.55808656 -0.3690205 10.55808656 -0.3690205 15 2 C15 2.33 15 2.66 15 3 C4.44191344 3.3690205 4.44191344 3.3690205 0 1 C0 0.67 0 0.34 0 0 Z " fill="#5BCC5A" transform="translate(326,300)"/>
<path d="M0 0 C0 0.99 0 1.98 0 3 C-0.639375 3.268125 -1.27875 3.53625 -1.9375 3.8125 C-4.33131686 4.88667752 -4.33131686 4.88667752 -5 8 C-5.99 7.67 -6.98 7.34 -8 7 C-8 5.68 -8 4.36 -8 3 C-2.25 0 -2.25 0 0 0 Z " fill="#5BCF5B" transform="translate(117,318)"/>
<path d="M0 0 C3.25519625 3.02268223 5.78310719 6.14096436 8 10 C7.67 10.99 7.34 11.98 7 13 C6.34 13 5.68 13 5 13 C5 11.35 5 9.7 5 8 C4.360625 7.79375 3.72125 7.5875 3.0625 7.375 C1 6 1 6 0.25 2.875 C0.1675 1.92625 0.085 0.9775 0 0 Z " fill="#6DD56F" transform="translate(198,304)"/>
<path d="M0 0 C1.24546405 2.49092811 0.7767578 3.41080733 0 6 C-0.66 6 -1.32 6 -2 6 C-1.67 7.32 -1.34 8.64 -1 10 C-2.98 10.66 -4.96 11.32 -7 12 C-5.44298069 7.32894208 -2.91552627 3.91294315 0 0 Z " fill="#82D983" transform="translate(305,298)"/>
<path d="M0 0 C1.32 0.66 2.64 1.32 4 2 C1.69 5.63 -0.62 9.26 -3 13 C-3.33 11.68 -3.66 10.36 -4 9 C-3.34 9 -2.68 9 -2 9 C-1.87625 8.030625 -1.7525 7.06125 -1.625 6.0625 C-1.41875 5.051875 -1.2125 4.04125 -1 3 C-0.34 2.67 0.32 2.34 1 2 C0.67 1.34 0.34 0.68 0 0 Z " fill="#7DD77C" transform="translate(364,193)"/>
<path d="M0 0 C1.85546875 0.22265625 1.85546875 0.22265625 4 1 C5.30078125 2.99609375 5.30078125 2.99609375 6.3125 5.4375 C6.65925781 6.24058594 7.00601563 7.04367188 7.36328125 7.87109375 C8 10 8 10 7 12 C5.82767315 10.3790787 4.6622923 8.75313167 3.5 7.125 C2.8503125 6.22007812 2.200625 5.31515625 1.53125 4.3828125 C0 2 0 2 0 0 Z " fill="#72D474" transform="translate(118,172)"/>
<path d="M0 0 C-2.62424658 1.74949772 -4.55727216 2.65389981 -7.5 3.625 C-8.66015625 4.01558594 -8.66015625 4.01558594 -9.84375 4.4140625 C-12 5 -12 5 -15 5 C-15 4.34 -15 3.68 -15 3 C-13.68 3 -12.36 3 -11 3 C-11 2.34 -11 1.68 -11 1 C-7.27569643 0.30710631 -3.78916254 -0.11144596 0 0 Z " fill="#75D277" transform="translate(363,402)"/>
<path d="M0 0 C0.99 0 1.98 0 3 0 C2.45276317 3.37462715 1.9451 5.08235 0 8 C-3.3 7.67 -6.6 7.34 -10 7 C-10 6.67 -10 6.34 -10 6 C-7.03 6 -4.06 6 -1 6 C-1 5.34 -1 4.68 -1 4 C-0.34 4 0.32 4 1 4 C0.67 2.68 0.34 1.36 0 0 Z " fill="#84D684" transform="translate(306,280)"/>
<path d="M0 0 C2.475 0.99 2.475 0.99 5 2 C5.33 1.34 5.66 0.68 6 0 C6.33 2.64 6.66 5.28 7 8 C6.01 8 5.02 8 4 8 C0 2.74285714 0 2.74285714 0 0 Z " fill="#65CF65" transform="translate(138,202)"/>
<path d="M0 0 C1.32 0.33 2.64 0.66 4 1 C4.33 2.98 4.66 4.96 5 7 C5.99 7.33 6.98 7.66 8 8 C7.67 9.32 7.34 10.64 7 12 C5.82767315 10.3790787 4.6622923 8.75313167 3.5 7.125 C2.8503125 6.22007812 2.200625 5.31515625 1.53125 4.3828125 C0 2 0 2 0 0 Z " fill="#7AD77B" transform="translate(86,124)"/>
<path d="M0 0 C6.32278971 0.32626495 11.55464391 0.61504892 17 4 C13.02623171 5.56393356 10.18622097 4.36145292 6.25 3.0625 C4.49429688 2.49208984 4.49429688 2.49208984 2.703125 1.91015625 C1.81109375 1.60980469 0.9190625 1.30945313 0 1 C0 0.67 0 0.34 0 0 Z " fill="#87DA88" transform="translate(149,406)"/>
<path d="M0 0 C1.43791516 0.14168137 2.8753237 0.28851043 4.3125 0.4375 C5.11300781 0.51871094 5.91351563 0.59992188 6.73828125 0.68359375 C9 1 9 1 12 2 C12 2.99 12 3.98 12 5 C6.71201818 4.58525633 3.88309282 3.64775386 0 0 Z " fill="#5ACB59" transform="translate(138,401)"/>
<path d="M0 0 C3.08089673 2.77280706 4.68775452 5.06326356 6 9 C4.35 9.66 2.7 10.32 1 11 C0.67 7.37 0.34 3.74 0 0 Z " fill="#68D569" transform="translate(228,349)"/>
<path d="M0 0 C0.66 0.33 1.32 0.66 2 1 C0.38731308 3.71224618 -1.24901874 6.37352812 -3 9 C-4.32 8.01 -5.64 7.02 -7 6 C-4.69 4.02 -2.38 2.04 0 0 Z " fill="#6DD76B" transform="translate(75,342)"/>
<path d="M0 0 C1.32 0 2.64 0 4 0 C2.68775452 3.93673644 1.08089673 6.22719294 -2 9 C-2.33 7.02 -2.66 5.04 -3 3 C-2.01 3 -1.02 3 0 3 C0 2.01 0 1.02 0 0 Z " fill="#74D574" transform="translate(397,144)"/>
<path d="M0 0 C2.64 0 5.28 0 8 0 C5.3139714 1.79068573 3.3373411 2.66055791 0.3125 3.625 C-0.49574219 3.88539063 -1.30398438 4.14578125 -2.13671875 4.4140625 C-2.75160156 4.60742188 -3.36648438 4.80078125 -4 5 C-4 4.01 -4 3.02 -4 2 C-2.68 2 -1.36 2 0 2 C0 1.34 0 0.68 0 0 Z " fill="#7DD97B" transform="translate(368,397)"/>
<path d="M0 0 C0.66 0.33 1.32 0.66 2 1 C2.56638908 5.81430721 0.82561627 8.20307814 -2 12 C-2.33 10.68 -2.66 9.36 -3 8 C-2.34 8 -1.68 8 -1 8 C-1.020625 6.865625 -1.04125 5.73125 -1.0625 4.5625 C-1 1 -1 1 0 0 Z " fill="#66D162" transform="translate(331,242)"/>
<path d="M0 0 C1.32 0 2.64 0 4 0 C2.54955729 4.10958767 0.48889248 7.43258745 -2 11 C-2.33 9.68 -2.66 8.36 -3 7 C-2.34 7 -1.68 7 -1 7 C-1.020625 6.030625 -1.04125 5.06125 -1.0625 4.0625 C-1 1 -1 1 0 0 Z " fill="#7BD97D" transform="translate(381,168)"/>
<path d="M0 0 C0.66 0.33 1.32 0.66 2 1 C-1.17320782 4.53586014 -3.16743695 6.58578031 -8 7 C-5.42215154 4.35247996 -3.08351902 2.05567935 0 0 Z " fill="#77D479" transform="translate(85,335)"/>
<path d="M0 0 C3.08089673 2.77280706 4.68775452 5.06326356 6 9 C3.525 8.01 3.525 8.01 1 7 C1 6.01 1 5.02 1 4 C0.34 3.67 -0.32 3.34 -1 3 C-0.67 2.01 -0.34 1.02 0 0 Z " fill="#69D46B" transform="translate(212,325)"/>
<path d="M0 0 C3.08089673 2.77280706 4.68775452 5.06326356 6 9 C4.0625 8.6875 4.0625 8.6875 2 8 C1.67 7.01 1.34 6.02 1 5 C0.34 4.34 -0.32 3.68 -1 3 C-0.67 2.01 -0.34 1.02 0 0 Z " fill="#6AD36C" transform="translate(206,316)"/>
<path d="M0 0 C0.99 0.33 1.98 0.66 3 1 C3 1.66 3 2.32 3 3 C4.32 3.33 5.64 3.66 7 4 C6.34 5.32 5.68 6.64 5 8 C2.20127563 5.47211993 0.54226981 3.79588866 0 0 Z " fill="#70D573" transform="translate(148,217)"/>
<path d="M0 0 C0.66 0 1.32 0 2 0 C2 0.66 2 1.32 2 2 C2.639375 2.2475 3.27875 2.495 3.9375 2.75 C6 4 6 4 6.75 6.125 C6.8325 6.74375 6.915 7.3625 7 8 C6.01 8 5.02 8 4 8 C0 2.74285714 0 2.74285714 0 0 Z " fill="#79D479" transform="translate(62,88)"/>
<path d="M0 0 C1 2 1 2 0.3125 5.0625 C-1 8 -1 8 -3.125 8.875 C-3.74375 8.91625 -4.3625 8.9575 -5 9 C-3.7508258 5.54074837 -2.32472205 2.85306797 0 0 Z " fill="#6BD268" transform="translate(266,357)"/>
<path d="M0 0 C3.36591866 1.44253657 5.51047079 3.33264727 8 6 C6.35 6.33 4.7 6.66 3 7 C2.01 4.69 1.02 2.38 0 0 Z " fill="#7CD97A" transform="translate(422,341)"/>
<path d="M0 0 C3.08089673 2.77280706 4.68775452 5.06326356 6 9 C5.01 8.67 4.02 8.34 3 8 C3 7.34 3 6.68 3 6 C2.01 6 1.02 6 0 6 C0 4.02 0 2.04 0 0 Z " fill="#71D572" transform="translate(218,334)"/>
<path d="M0 0 C0.99 0 1.98 0 3 0 C3 0.66 3 1.32 3 2 C3.66 2 4.32 2 5 2 C5 3.65 5 5.3 5 7 C5.66 7.33 6.32 7.66 7 8 C6.01 8 5.02 8 4 8 C0 2.74285714 0 2.74285714 0 0 Z " fill="#86D987" transform="translate(159,234)"/>
<path d="M0 0 C0.99 0.33 1.98 0.66 3 1 C2.19185349 2.33597652 1.37836819 3.668725 0.5625 5 C0.11003906 5.7425 -0.34242188 6.485 -0.80859375 7.25 C-1.20175781 7.8275 -1.59492188 8.405 -2 9 C-2.33 9 -2.66 9 -3 9 C-2.67 6.69 -2.34 4.38 -2 2 C-1.34 2 -0.68 2 0 2 C0 1.34 0 0.68 0 0 Z " fill="#7ED882" transform="translate(413,122)"/>
<path d="M0 0 C2.31 0.33 4.62 0.66 7 1 C6.67 1.99 6.34 2.98 6 4 C6.66 4 7.32 4 8 4 C7.67 4.66 7.34 5.32 7 6 C5.83054208 5.19152271 4.66449539 4.37810888 3.5 3.5625 C2.8503125 3.11003906 2.200625 2.65757812 1.53125 2.19140625 C1.0259375 1.79824219 0.520625 1.40507812 0 1 C0 0.67 0 0.34 0 0 Z " fill="#71D572" transform="translate(76,369)"/>
<path d="M0 0 C0.66 0.33 1.32 0.66 2 1 C0.35 3.64 -1.3 6.28 -3 9 C-3.66 7.68 -4.32 6.36 -5 5 C-4.67 4.34 -4.34 3.68 -4 3 C-1.9375 2.375 -1.9375 2.375 0 2 C0 1.34 0 0.68 0 0 Z " fill="#77D878" transform="translate(358,206)"/>
<path d="M0 0 C-2.31 1.65 -4.62 3.3 -7 5 C-7.66 4.01 -8.32 3.02 -9 2 C-3.375 -1.125 -3.375 -1.125 0 0 Z " fill="#6CD16B" transform="translate(424,370)"/>
<path d="M0 0 C1.875 0.5625 1.875 0.5625 4 2 C5.25 5.625 5.25 5.625 6 9 C2.91910327 6.22719294 1.31224548 3.93673644 0 0 Z " fill="#85DC85" transform="translate(183,270)"/>
<path d="M0 0 C0.66 0.33 1.32 0.66 2 1 C1.67 1.99 1.34 2.98 1 4 C1.59793673 6.35188447 2.25881795 8.68925595 3 11 C1 9.375 1 9.375 -1 7 C-1.3125 3.8125 -1.3125 3.8125 -1 1 C-0.67 0.67 -0.34 0.34 0 0 Z " fill="#8DDC8D" transform="translate(59,77)"/>
<path d="M0 0 C-2.31 1.65 -4.62 3.3 -7 5 C-7 3.35 -7 1.7 -7 0 C-4 -1 -4 -1 0 0 Z " fill="#6FD26F" transform="translate(432,364)"/>
<path d="M0 0 C1 2 1 2 0.3125 4.5 C-1.15567038 7.29651501 -2.09303901 7.93411431 -5 9 C-3.7508258 5.54074837 -2.32472205 2.85306797 0 0 Z " fill="#8ADD8E" transform="translate(279,337)"/>
<path d="M0 0 C4.55384615 -0.36923077 4.55384615 -0.36923077 6.8125 1.5 C7.204375 1.995 7.59625 2.49 8 3 C7.01 3.33 6.02 3.66 5 4 C2.3125 2.625 2.3125 2.625 0 1 C0 0.67 0 0.34 0 0 Z M0 2 C0 5 0 5 0 5 Z " fill="#5ED35E" transform="translate(401,329)"/>
<path d="M0 0 C1 2 1 2 0.3125 4.5 C-1.15567038 7.29651501 -2.09303901 7.93411431 -5 9 C-3.7508258 5.54074837 -2.32472205 2.85306797 0 0 Z " fill="#8DDC8D" transform="translate(289,322)"/>
<path d="M0 0 C2.97 0.99 5.94 1.98 9 3 C7.02 3.99 7.02 3.99 5 5 C2.25 3.75 2.25 3.75 0 2 C0 1.34 0 0.68 0 0 Z " fill="#7FD682" transform="translate(360,308)"/>
<path d="M0 0 C0.66 0 1.32 0 2 0 C1.42647107 3.87132028 -0.48704352 6.08172796 -3 9 C-3 7.35 -3 5.7 -3 4 C-2.01 3.67 -1.02 3.34 0 3 C0 2.01 0 1.02 0 0 Z " fill="#7FD47D" transform="translate(371,185)"/>
<path d="M0 0 C2.475 0.495 2.475 0.495 5 1 C5.33 3.31 5.66 5.62 6 8 C3.33264727 5.51047079 1.44253657 3.36591866 0 0 Z " fill="#81D780" transform="translate(78,113)"/>
<path d="M0 0 C0.93423645 3.01031744 1.04449911 3.86650268 0 7 C-1.65 5.02 -3.3 3.04 -5 1 C-2.525 1.495 -2.525 1.495 0 2 C0 1.34 0 0.68 0 0 Z " fill="#65D165" transform="translate(68,357)"/>
<path d="M0 0 C2.97 1.98 2.97 1.98 6 4 C5.34 4.66 4.68 5.32 4 6 C1.875 5.625 1.875 5.625 0 5 C0 3.35 0 1.7 0 0 Z " fill="#6FD373" transform="translate(416,336)"/>
<path d="M0 0 C-3.08888522 2.05925681 -3.70935927 2.2390374 -7.1875 2.125 C-9.0746875 2.063125 -9.0746875 2.063125 -11 2 C-6.98764085 -0.6749061 -4.6342454 -1.48957888 0 0 Z " fill="#83D887" transform="translate(168,301)"/>
<path d="M0 0 C1.9375 0.6875 1.9375 0.6875 4 2 C4.625 4.5625 4.625 4.5625 5 7 C5.66 7.33 6.32 7.66 7 8 C6.01 8 5.02 8 4 8 C0 2.74285714 0 2.74285714 0 0 Z " fill="#8FDF96" transform="translate(153,225)"/>
<path d="M0 0 C1.98 0.66 3.96 1.32 6 2 C5.67 3.32 5.34 4.64 5 6 C4.01 5.67 3.02 5.34 2 5 C0.8125 2.4375 0.8125 2.4375 0 0 Z " fill="#70D272" transform="translate(68,97)"/>
</svg>
